<svg xmlns="http://www.w3.org/2000/svg" viewBox="0 0 24 24"><defs><style>.a{opacity:0.62;}.b{fill:#4964da;}</style></defs><g class="a" transform="translate(-5 -5)"><g transform="translate(5 5)"><path class="b" d="M17,5A12,12,0,1,0,29,17,11.984,11.984,0,0,0,17,5Zm0,21.893A9.893,9.893,0,1,1,26.893,17,9.907,9.907,0,0,1,17,26.893Z" transform="translate(-5 -5)"/><path class="b" d="M36.087,32.527a4.029,4.029,0,1,0-3.893.027A6.392,6.392,0,0,0,28.3,36.18h0a7.5,7.5,0,0,0,11.707-.027l-.027.027A6.361,6.361,0,0,0,36.087,32.527Z" transform="translate(-22.087 -19.593)"/></g></g></svg>